<?xml version="1.0" standalone="no"?>
<!DOCTYPE svg PUBLIC "-//W3C//DTD SVG 20010904//EN"
 "http://www.w3.org/TR/2001/REC-SVG-20010904/DTD/svg10.dtd">
<svg version="1.0" xmlns="http://www.w3.org/2000/svg"
 width="512.000000pt" height="512.000000pt" viewBox="0 0 512.000000 512.000000"
 preserveAspectRatio="xMidYMid meet">
<metadata>
Created by potrace 1.11, written by Peter Selinger 2001-2013
</metadata>
<g transform="translate(0.000000,512.000000) scale(0.100000,-0.100000)"
fill="#000000" stroke="none">
<path d="M230 2675 l0 -1795 50 0 50 0 0 -85 0 -85 1425 0 1425 0 0 360 0 360
-50 0 -50 0 0 85 0 86 -907 -1 -908 -2 -3 286 -2 286 752 2 753 3 3 358 2 357
-49 0 -50 0 -3 83 -3 82 -700 1 -700 2 -3 261 -2 261 960 0 960 0 0 360 0 360
-50 0 -50 0 0 85 0 85 -1425 0 -1425 0 0 -1795z"/>
<path d="M4218 4449 c-349 -60 -552 -216 -649 -496 -68 -198 -71 -258 -67
-1358 3 -872 5 -968 21 -1045 30 -144 81 -276 131 -345 13 -16 44 -72 71 -123
73 -139 194 -253 335 -315 119 -52 362 -97 526 -97 l72 0 6 -35 c15 -81 58
-191 99 -258 25 -40 57 -97 72 -127 34 -69 82 -130 154 -197 47 -44 62 -52 94
-53 l37 0 0 785 0 784 -278 3 c-246 3 -281 5 -305 21 l-27 17 0 855 c0 577 4
870 11 905 16 73 64 139 124 170 48 24 57 25 262 28 l213 3 0 450 0 449 -397
-1 c-341 -1 -414 -4 -505 -20z"/>
</g>
</svg>
